<?xml version="1.0" standalone="no"?>
<!DOCTYPE svg PUBLIC "-//W3C//DTD SVG 20010904//EN"
 "http://www.w3.org/TR/2001/REC-SVG-20010904/DTD/svg10.dtd">
<svg version="1.0" xmlns="http://www.w3.org/2000/svg"
 width="128.000000pt" height="128.000000pt" viewBox="0 0 128.000000 128.000000"
 preserveAspectRatio="xMidYMid meet">

<g transform="translate(0.000000,128.000000) scale(0.100000,-0.100000)"
fill="#ffffff" stroke="none">
<path d="M501 1154 c-172 -46 -308 -176 -368 -353 -31 -92 -31 -230 0 -322 63
-185 213 -322 394 -359 89 -19 225 -8 304 24 36 14 72 26 80 26 9 0 55 -14
104 -30 97 -33 125 -36 143 -18 18 18 15 46 -18 143 -16 49 -30 95 -30 104 0
8 12 44 26 80 32 79 43 215 24 304 -39 188 -196 352 -385 402 -73 19 -202 18
-274 -1z m244 -100 c121 -31 216 -108 270 -218 66 -133 67 -251 5 -384 l-31
-65 22 -64 c11 -35 19 -67 16 -70 -3 -3 -35 5 -70 16 l-64 22 -65 -31 c-86
-40 -178 -55 -254 -41 -236 44 -395 261 -357 487 43 251 286 412 528 348z"/>
</g>
</svg>
