<?xml version="1.0" standalone="no"?>

<svg version="1.0" xmlns="http://www.w3.org/2000/svg"
 width="64.000000pt" height="64.000000pt" viewBox="0 0 64.000000 64.000000"
 preserveAspectRatio="xMidYMid meet">

<g transform="translate(0.000000,64.000000) scale(0.100000,-0.100000)"
fill="#FFFFFF" stroke="none">
<path d="M156 474 c-3 -8 -6 -67 -6 -129 0 -145 0 -145 124 -145 130 0 127 -3
124 155 l-3 130 -116 3 c-100 2 -118 0 -123 -14z"/>
<path d="M430 325 c0 -145 0 -145 -111 -145 -68 0 -90 -3 -86 -12 3 -10 36
-13 123 -13 l119 0 0 135 c0 132 0 135 -22 138 -23 3 -23 2 -23 -103z"/>
</g>
</svg>
