<?xml version="1.0" standalone="no"?>
<!DOCTYPE svg PUBLIC "-//W3C//DTD SVG 20010904//EN"
 "http://www.w3.org/TR/2001/REC-SVG-20010904/DTD/svg10.dtd">
<svg version="1.0" xmlns="http://www.w3.org/2000/svg"
 width="128.000000pt" height="128.000000pt" viewBox="0 0 128.000000 128.000000"
 preserveAspectRatio="xMidYMid meet">

<g transform="translate(0.000000,128.000000) scale(0.100000,-0.100000)"
fill="#ffffff" stroke="none">
<path d="M643 1081 c-342 -108 -624 -199 -628 -202 -3 -4 108 -77 247 -164
139 -87 262 -167 274 -179 12 -12 92 -135 179 -274 86 -140 161 -250 165 -245
4 4 93 284 199 621 105 337 194 619 197 627 4 8 2 14 -2 14 -5 -1 -289 -90
-631 -198z m182 -201 c-174 -174 -265 -258 -275 -255 -40 16 -369 230 -358
234 30 10 883 279 888 280 3 1 -112 -116 -255 -259z m300 158 c-34 -112 -267
-853 -269 -855 -2 -2 -199 311 -231 366 -5 9 69 90 251 272 142 143 260 259
260 259 1 0 -4 -19 -11 -42z"/>
</g>
</svg>
